<svg xmlns="http://www.w3.org/2000/svg" viewBox="0 0 32 32">
  <!-- Body -->
  <rect x="10" y="4" width="12" height="2" fill="#0a0"/>
  <rect x="8" y="6" width="16" height="2" fill="#0a0"/>
  <rect x="6" y="8" width="20" height="2" fill="#0a0"/>
  <rect x="4" y="10" width="24" height="2" fill="#0a0"/>
  <rect x="4" y="12" width="24" height="2" fill="#0a0"/>
  <rect x="4" y="14" width="24" height="2" fill="#0a0"/>
  <rect x="4" y="16" width="24" height="2" fill="#0a0"/>
  <rect x="6" y="18" width="20" height="2" fill="#0a0"/>
  <rect x="8" y="20" width="16" height="2" fill="#0a0"/>
  <!-- Left eye white -->
  <rect x="8" y="10" width="4" height="4" fill="#fff"/>
  <!-- Left pupil -->
  <rect x="10" y="11" width="2" height="2" fill="#000"/>
  <!-- Right eye white -->
  <rect x="20" y="10" width="4" height="4" fill="#fff"/>
  <!-- Right pupil -->
  <rect x="22" y="11" width="2" height="2" fill="#000"/>
  <!-- Mouth -->
  <rect x="12" y="16" width="8" height="2" fill="#050"/>
  <!-- Tentacles -->
  <rect x="6" y="22" width="2" height="4" fill="#0a0"/>
  <rect x="10" y="22" width="2" height="4" fill="#0a0"/>
  <rect x="14" y="22" width="2" height="4" fill="#0a0"/>
  <rect x="18" y="22" width="2" height="4" fill="#0a0"/>
  <rect x="22" y="22" width="2" height="4" fill="#0a0"/>
  <rect x="6" y="26" width="2" height="2" fill="#0a0"/>
  <rect x="14" y="26" width="2" height="2" fill="#0a0"/>
  <rect x="22" y="26" width="2" height="2" fill="#0a0"/>
</svg>
